# xmcd
#
# Track frame offsets: 
#        150
#        14974
#        34925
#        48743
#        68179
#        79597
#        94188
#        106762
#        119862
#        131029
#        143259
#        156310
#        171695
#
# Disc length: 2472 seconds
#
# Revision: 0
# Processed by: cddbd v1.5.2PL0 Copyright (c) Steve Scherf et al.
# Submitted via: ExactAudioCopy v0.99pb5
#
DISCID=c009a60d
DTITLE=Caitlin - Sweet Is the Melody
DYEAR=2016
DGENRE=Country
TTITLE0=This Is My Island
TTITLE1=Red Is the Rose (feat. Charlie Landsborough)
TTITLE2=Daddy's Hands
TTITLE3=Blue Moon over My World Without You
TTITLE4=Speed of the Sound of Loneliness
TTITLE5=This Story I Tell You Is True
TTITLE6=It Ain't Me Babe
TTITLE7=Glens of Home
TTITLE8=It's Good to See You
TTITLE9=Blue Eyes Crying in the Rain
TTITLE10=Heaven's Just a Sin Away
TTITLE11=Sweet Is the Melody
TTITLE12=Where the Grass Grows the Greenest
EXTD=
EXTT0=
EXTT1=
EXTT2=
EXTT3=
EXTT4=
EXTT5=
EXTT6=
EXTT7=
EXTT8=
EXTT9=
EXTT10=
EXTT11=
EXTT12=
PLAYORDER=
